<?xml version="1.0" standalone="no"?>
<!DOCTYPE svg PUBLIC "-//W3C//DTD SVG 20010904//EN"
 "http://www.w3.org/TR/2001/REC-SVG-20010904/DTD/svg10.dtd">
<svg version="1.0" xmlns="http://www.w3.org/2000/svg"
 width="1024.000000pt" height="1024.000000pt" viewBox="0 0 1024.000000 1024.000000"
 preserveAspectRatio="xMidYMid meet">

<g transform="translate(0.000000,1024.000000) scale(0.100000,-0.100000)"
fill="#000000" stroke="none">
<path d="M0 5120 l0 -5120 5120 0 5120 0 0 5120 0 5120 -5120 0 -5120 0 0
-5120z m7225 4405 c203 -53 351 -195 421 -405 18 -52 19 -113 22 -1017 l3
-963 -295 0 -295 0 -3 623 c-3 610 -3 623 -24 668 -26 55 -65 94 -119 120 -39
18 -108 19 -2170 19 -1385 0 -2143 -4 -2166 -10 -45 -13 -124 -89 -141 -138
-11 -30 -13 -595 -13 -3112 0 -2980 1 -3076 19 -3110 25 -49 74 -98 118 -121
36 -19 89 -19 2173 -19 1789 0 2141 2 2169 14 50 21 107 76 130 126 20 44 21
62 24 583 l3 537 295 0 295 0 -3 -1027 -3 -1028 -27 -73 c-14 -40 -40 -94 -58
-122 -47 -73 -159 -174 -233 -209 -138 -66 63 -61 -2613 -59 l-2429 3 -83 34
c-159 63 -281 190 -340 352 l-27 74 -3 3840 c-1 2396 1 3872 7 3926 27 242
206 441 450 498 20 5 1121 9 2446 10 2143 1 2417 -1 2470 -14z m1315 -2814
c33 -9 65 -68 56 -104 -3 -14 -16 -35 -28 -47 -21 -19 -34 -20 -1452 -22
-1572 -3 -1456 1 -1515 -61 -25 -27 -38 -96 -27 -141 8 -33 53 -85 85 -99 19
-9 405 -13 1481 -17 l1455 -5 55 -27 c76 -37 135 -101 163 -173 21 -56 22 -75
21 -293 l0 -233 -27 -27 -27 -27 -288 -6 c-267 -5 -291 -7 -344 -28 -126 -49
-238 -165 -273 -284 -20 -66 -19 -189 1 -257 30 -101 122 -213 214 -260 86
-44 133 -50 389 -50 139 0 262 -5 283 -10 71 -20 90 -89 39 -141 l-29 -29
-1662 0 c-1551 0 -1664 1 -1691 17 -18 11 -31 28 -34 48 -3 16 -4 485 -3 1040
l3 1010 23 46 c43 88 135 161 225 179 50 9 2871 11 2907 1z m-5131 -205 c6 -7
19 -37 30 -67 20 -58 165 -441 237 -627 24 -62 44 -117 44 -122 0 -15 -167
-13 -177 2 -4 7 -19 44 -33 83 l-25 70 -160 0 -160 0 -27 -80 -27 -80 -85 -3
c-78 -3 -86 -1 -86 16 0 10 54 162 121 338 66 175 132 351 146 389 15 39 31
76 36 83 14 17 151 16 166 -2z m521 -341 l5 -350 130 3 c72 2 154 0 183 -3
l52 -6 0 -65 0 -64 -272 2 -273 3 -3 405 c-1 223 0 411 3 418 3 9 27 12 87 10
l83 -3 5 -350z m978 288 l-3 -68 -187 -3 -188 -2 0 -110 0 -110 168 -2 167 -3
0 -65 0 -65 -167 -3 -168 -2 0 -154 c0 -85 -3 -161 -6 -170 -9 -23 -159 -23
-168 0 -8 21 -8 809 1 817 3 4 130 7 280 7 l274 0 -3 -67z m-1437 -1181 c91
-36 139 -103 139 -193 0 -67 -29 -128 -76 -161 l-36 -26 39 -21 c21 -12 50
-38 63 -58 21 -31 25 -48 25 -113 0 -68 -3 -82 -30 -126 -24 -37 -45 -56 -90
-79 l-59 -30 -223 -3 -223 -4 0 422 0 422 208 -4 c182 -4 214 -7 263 -26z
m471 9 c6 -10 57 -143 112 -296 56 -152 106 -276 111 -275 6 1 47 106 93 234
45 127 93 258 105 291 l23 60 114 0 115 0 0 -415 0 -415 -85 0 -85 0 2 235 c0
129 4 263 7 298 4 34 3 62 -2 62 -5 0 -40 -84 -78 -187 -37 -104 -86 -237
-109 -298 l-41 -110 -60 -3 -61 -3 -103 283 c-57 156 -107 294 -112 307 -5 13
-11 21 -14 18 -3 -3 -1 -117 6 -254 7 -136 10 -270 8 -298 l-3 -50 -85 0 -85
0 -3 395 c-1 217 0 405 3 418 5 21 10 22 110 22 92 0 106 -2 117 -19z m4923
-66 c25 -24 25 -25 25 -225 0 -200 0 -201 -25 -225 l-24 -25 -298 0 c-179 0
-313 4 -336 11 -53 14 -132 93 -146 144 -38 140 11 269 123 321 50 23 57 24
354 24 l303 0 24 -25z m-40 -1160 c0 -152 -107 -268 -271 -295 -76 -13 -2806
-13 -2891 -1 -155 23 -269 138 -281 283 -2 32 -2 64 2 73 5 13 188 15 1723 13
l1718 -3 0 -70z"/>
<path d="M4270 1639 c-93 -10 -142 -46 -181 -133 -46 -105 7 -236 113 -281 32
-13 111 -15 557 -15 394 0 526 3 547 13 54 23 85 50 111 95 56 96 25 227 -69
290 -38 25 -50 27 -157 29 -286 6 -871 7 -921 2z"/>
<path d="M3315 6289 c-34 -93 -93 -284 -89 -290 6 -11 204 -12 204 -2 0 16
-93 288 -101 297 -5 6 -11 4 -14 -5z"/>
<path d="M3170 5056 c0 -103 0 -104 26 -110 42 -11 170 5 203 25 55 34 54 135
-2 169 -26 16 -51 20 -129 20 l-98 0 0 -104z"/>
<path d="M3174 4817 c-2 -7 -3 -60 -2 -118 l3 -104 89 -3 c136 -4 196 34 196
125 0 40 -29 84 -65 99 -46 19 -214 20 -221 1z"/>
</g>
</svg>
